<?xml version="1.0" encoding="UTF-8"?>
<svg id="Layer_1" data-name="Layer 1" xmlns="http://www.w3.org/2000/svg" viewBox="0 0 1363.15 518.81">
  <defs>
    <style>
      .cls-1 {
        fill: #fafbfb;
        stroke-width: 0px;
      }
    </style>
  </defs>
  <g>
    <path class="cls-1" d="M306.31,260.33c0-25.91,14.32-40.56,34.43-40.56h34.76c8.87,0,12.96,4.43,12.96,12.61s-4.44,11.93-13.3,11.93h-42.36c-3.52,0-6.38,2.85-6.38,6.38v18.27c0,3.52,2.85,6.38,6.38,6.38h54.29c39.2,0,55.56-15.34,55.56-45,0-32.04-19.09-54.53-58.28-54.53h-43.29c-52.83,0-91.35,34.42-91.35,84.87s38.52,85.21,91.35,85.21h92.37v-46.69s-92.71,0-92.71,0c-20.11,0-34.43-13.3-34.43-38.86Z"/>
    <path class="cls-1" d="M539.9,227.61h77.04v-51.81h-76.7c-52.83,0-91.34,34.42-91.34,84.87s38.51,85.21,91.34,85.21h76.7v-51.81h-77.04c-20.11,0-34.42-13.63-34.42-33.4s14.31-33.06,34.42-33.06Z"/>
    <path class="cls-1" d="M746.27,175.8h-40.11c-10.04,0-18.17-8.14-18.17-18.17v-27.19c0-9.21-7.47-16.68-16.68-16.68h-40.59v232.13h57.27v-100.75c0-9.67,7.84-17.52,17.52-17.52h39.4c19.77,0,29.65,9.54,29.65,28.97v89.3h56.93v-88.96c0-51.47-29.32-81.12-85.22-81.12Z"/>
    <path class="cls-1" d="M1024.86,202.04v-10.9c0-10.23-6.14-15.34-18.75-15.34h-161.9v6.6c0,23.46,19.02,42.48,42.48,42.48h51.59s-80.44,64.08-80.44,64.08c-11.59,8.52-13.63,14.66-13.63,25.56v12.62c0,12.61,6.81,18.74,20.79,18.74h159.86v-6.6c0-23.83-19.32-43.16-43.16-43.16h-59.1s91.69-73.63,91.69-73.63c8.52-6.13,10.57-11.92,10.57-20.45Z"/>
    <path class="cls-1" d="M1193.82,178.77l-50.4,106.09-49.04-106.04c-.85-1.85-2.7-3.03-4.74-3.03h-45.86c-3.87,0-6.39,4.07-4.67,7.53l71.66,144.5c5.79,11.68-1.33,25.67-14.19,27.79-1.95.32-4.06.49-6.32.49h-18.06v49.08h23.18c32.72,0,48.74-13.29,63.39-42.61l90.59-179.21c1.75-3.47-.77-7.57-4.66-7.57h-46.17c-2.01,0-3.85,1.16-4.71,2.98Z"/>
    <g>
      <rect class="cls-1" x="113.23" y="113.62" width="56.58" height="56.3"/>
      <rect class="cls-1" x="169.81" y="169.83" width="56.58" height="56.58"/>
      <path class="cls-1" d="M236.27,296.88v46.7h-61.01c-40.28,0-61.38-22.15-62.01-60.59-.02-.59-.02-1.19-.02-1.79v-54.79h56.58v50.36c0,13.29,6.47,20.11,20.11,20.11h46.35Z"/>
    </g>
  </g>
  <g>
    <path class="cls-1" d="M770.46,368.91h29.48v5.71h-11.3v28.26h-6.87v-28.26h-11.3v-5.71Z"/>
    <path class="cls-1" d="M799.73,382.01c2.25-2.29,5.35-3.43,9.3-3.43s6.89,1.14,9.06,3.41,3.25,5.29,3.25,9.06c0,.63-.04,1.29-.11,1.95h-18.23c.14,1.55.78,2.78,1.93,3.7,1.14.92,2.54,1.37,4.2,1.37.77,0,1.47-.09,2.09-.26.62-.18,1.09-.38,1.43-.61.33-.23.62-.47.84-.71.23-.25.38-.46.45-.63l.11-.26h6.81c-.04.21-.11.49-.24.85-.12.35-.46.98-1,1.88-.55.9-1.21,1.69-1.98,2.38s-1.92,1.31-3.43,1.88c-1.51.56-3.22.85-5.12.85-3.8,0-6.88-1.12-9.22-3.35-2.34-2.24-3.51-5.24-3.51-9.01s1.13-6.71,3.38-9.03ZM814.73,388.45v-.16c0-1.34-.53-2.4-1.58-3.2-1.06-.79-2.41-1.19-4.07-1.19s-3.07.42-4.15,1.27c-1.08.84-1.72,1.94-1.93,3.27h11.73Z"/>
    <path class="cls-1" d="M828.73,381.9c2.29-2.22,5.48-3.33,9.56-3.33,2.15,0,4.04.29,5.68.87s2.84,1.29,3.62,2.11c.77.83,1.41,1.66,1.9,2.51.49.84.77,1.55.84,2.11l.16.9h-6.92c-.04-.07-.07-.18-.11-.34-.04-.16-.18-.41-.45-.77-.26-.35-.56-.67-.9-.95-.34-.28-.85-.54-1.53-.77-.69-.23-1.45-.34-2.3-.34-2.01,0-3.53.6-4.57,1.8-1.04,1.2-1.56,2.89-1.56,5.07s.53,3.99,1.58,5.31,2.57,1.98,4.54,1.98c1.34,0,2.45-.34,3.33-1.03.88-.69,1.43-1.38,1.64-2.09l.32-1h6.87c-.04.25-.09.58-.16,1-.07.42-.36,1.18-.87,2.27-.51,1.09-1.15,2.05-1.93,2.88-.78.83-1.97,1.58-3.59,2.27-1.62.69-3.49,1.03-5.6,1.03-4.12,0-7.33-1.13-9.61-3.38-2.29-2.25-3.43-5.34-3.43-9.24,0-3.66,1.16-6.62,3.49-8.88Z"/>
    <path class="cls-1" d="M854.88,368.91h6.81v7.97c0,1.82,1.84,2.97,3.52,2.3.99-.39,2.11-.59,3.34-.61h.42c3.87,0,6.6,1.01,8.19,3.04,1.58,2.03,2.38,4.96,2.38,8.8v12.47h-1.85c-2.74,0-4.96-2.22-4.96-4.96v-7.5c0-4.26-1.58-6.41-4.75-6.45h-.16c-2.11,0-3.66.7-4.65,2.09-.99,1.39-1.48,3.37-1.48,5.94v10.88h-6.81v-33.97Z"/>
    <path class="cls-1" d="M906.01,392.25c0,.14.02.33.05.58.03.25.18.67.45,1.27.26.6.64,1.13,1.14,1.58.49.46,1.29.88,2.38,1.27,1.09.39,2.38.58,3.86.58,2.43,0,4.24-.38,5.44-1.14,1.2-.76,1.8-1.73,1.8-2.93,0-.99-.39-1.82-1.16-2.51s-1.8-1.24-3.06-1.66-2.66-.82-4.17-1.19c-1.51-.37-3.03-.78-4.54-1.24-1.51-.46-2.91-1-4.17-1.64s-2.3-1.52-3.09-2.67c-.79-1.14-1.21-2.47-1.24-3.99v-.16c0-3.13,1.24-5.59,3.72-7.37,2.48-1.78,5.85-2.67,10.12-2.67,2.54,0,4.75.33,6.63.98,1.88.65,3.27,1.45,4.15,2.4.88.95,1.58,1.89,2.09,2.83.51.93.8,1.73.87,2.4l.11.95h-7.29c0-.11-.03-.24-.08-.4s-.21-.45-.48-.87c-.26-.42-.61-.8-1.03-1.14-.42-.33-1.07-.63-1.93-.9-.86-.26-1.86-.4-2.98-.4-2.15,0-3.81.37-4.99,1.11-1.18.74-1.77,1.66-1.77,2.75v.21c.07.81.51,1.5,1.32,2.06.81.56,1.86,1.01,3.14,1.35,1.29.34,2.68.66,4.2.98,1.51.32,3.03.72,4.54,1.21,1.51.49,2.9,1.1,4.15,1.82,1.25.72,2.26,1.73,3.04,3.04.77,1.3,1.16,2.85,1.16,4.65,0,3.17-1.27,5.63-3.8,7.37-2.54,1.74-6.09,2.62-10.67,2.62-1.94,0-3.71-.2-5.31-.61s-2.91-.93-3.94-1.58c-1.02-.65-1.92-1.37-2.69-2.17-.77-.79-1.36-1.59-1.74-2.4-.39-.81-.71-1.54-.95-2.19-.25-.65-.39-1.19-.42-1.61l-.11-.58h7.29Z"/>
    <path class="cls-1" d="M931.1,379.1h0c1.69,0,3.06-1.37,3.06-3.06v-3.91h6.81v6.97h5.71v5.71h-2.59c-1.69,0-3.06,1.37-3.06,3.06v7.5c0,.67.12,1.14.37,1.4.25.26.69.4,1.32.4h3.96v5.71h-3.96c-3.28,0-5.52-.49-6.74-1.48-1.21-.99-1.82-2.99-1.82-6.02v-10.57h-3.06v-5.71Z"/>
    <path class="cls-1" d="M953.29,382.11c2.39-2.36,5.69-3.54,9.88-3.54s7.49,1.18,9.9,3.54c2.41,2.36,3.62,5.32,3.62,8.88s-1.2,6.55-3.59,8.88c-2.43,2.36-5.74,3.54-9.93,3.54s-7.49-1.19-9.91-3.57c-2.41-2.38-3.62-5.33-3.62-8.85s1.21-6.51,3.64-8.88ZM956.57,390.99c0,2.04.56,3.73,1.69,5.07,1.13,1.34,2.76,2.01,4.91,2.01s3.74-.68,4.89-2.03c1.14-1.36,1.72-3.04,1.72-5.04,0-2.11-.56-3.82-1.69-5.12s-2.76-1.96-4.91-1.96-3.79.65-4.91,1.96c-1.13,1.3-1.69,3.01-1.69,5.12Z"/>
    <path class="cls-1" d="M981.13,379.1h6.66v.62c0,.9,1.04,1.43,1.75.87,1.24-.99,2.79-1.49,4.64-1.49h2.8v5.71h-2.64c-2.78,0-4.54.68-5.28,2.03s-1.11,4.29-1.11,8.79v6.15c0,.6-.49,1.09-1.09,1.09h-5.72v-23.77Z"/>
    <path class="cls-1" d="M1002.42,382.01c2.25-2.29,5.35-3.43,9.3-3.43s6.89,1.14,9.06,3.41,3.25,5.29,3.25,9.06c0,.63-.04,1.29-.11,1.95h-18.23c.14,1.55.78,2.78,1.93,3.7,1.14.92,2.54,1.37,4.2,1.37.77,0,1.47-.09,2.09-.26.62-.18,1.09-.38,1.43-.61.33-.23.62-.47.84-.71.23-.25.38-.46.45-.63l.11-.26h6.81c-.04.21-.11.49-.24.85-.12.35-.46.98-1,1.88-.55.9-1.21,1.69-1.98,2.38s-1.92,1.31-3.43,1.88c-1.51.56-3.22.85-5.12.85-3.8,0-6.88-1.12-9.22-3.35-2.34-2.24-3.51-5.24-3.51-9.01s1.13-6.71,3.38-9.03ZM1017.42,388.45v-.16c0-1.34-.53-2.4-1.58-3.2-1.06-.79-2.41-1.19-4.07-1.19s-3.07.42-4.15,1.27c-1.08.84-1.72,1.94-1.93,3.27h11.73Z"/>
  </g>
</svg>